<?xml version="1.0" standalone="no"?>
<!DOCTYPE svg PUBLIC "-//W3C//DTD SVG 20010904//EN"
 "http://www.w3.org/TR/2001/REC-SVG-20010904/DTD/svg10.dtd">
<svg version="1.0" xmlns="http://www.w3.org/2000/svg"
 width="512.000000pt" height="512.000000pt" viewBox="0 0 512.000000 512.000000"
 preserveAspectRatio="xMidYMid meet">
<metadata>
Created by potrace 1.14, written by Peter Selinger 2001-2017
</metadata>
<g transform="translate(0.000000,512.000000) scale(0.100000,-0.100000)"
fill="#000000" stroke="none">
<path d="M3084 5103 c2 -10 7 -63 11 -118 3 -55 8 -113 10 -130 3 -16 7 -68
10 -115 3 -47 7 -103 10 -125 2 -22 7 -69 9 -105 9 -106 17 -212 21 -255 3
-22 7 -80 10 -130 4 -49 8 -110 10 -135 19 -211 26 -715 12 -834 -8 -60 -23
-148 -41 -225 -23 -102 -95 -260 -163 -358 -64 -92 -218 -242 -344 -334 -57
-42 -149 -109 -204 -149 -73 -54 -211 -185 -512 -487 -227 -227 -416 -413
-420 -414 -5 0 -16 -2 -25 -4 -9 -2 -60 -6 -113 -10 -53 -3 -104 -8 -113 -10
-9 -1 -48 -6 -85 -10 -37 -3 -76 -8 -85 -10 -9 -1 -38 -6 -65 -9 -26 -4 -60
-11 -75 -17 -15 -6 -29 -10 -32 -10 -12 2 -45 -13 -58 -25 -7 -8 -34 -14 -60
-15 -26 0 -56 -2 -67 -4 -24 -4 -138 -13 -182 -14 -33 -1 -33 -2 -33 -48 0
-27 7 -72 14 -100 35 -132 91 -195 203 -231 168 -53 262 -52 488 5 45 11 112
10 155 -2 63 -18 128 -24 329 -31 96 -3 177 -6 180 -6 3 -1 26 2 50 6 108 20
218 71 492 228 354 204 399 218 689 213 113 -1 214 -5 225 -8 42 -11 282 -56
333 -62 69 -9 265 -9 345 0 290 31 432 136 478 350 7 33 14 67 16 75 5 26 4
214 -2 255 -13 85 -49 194 -96 287 -48 97 -83 201 -95 288 -10 75 -4 387 10
515 3 28 8 79 11 115 3 36 8 76 10 90 2 14 7 43 9 65 18 134 48 331 71 455 2
14 20 122 40 240 19 118 37 229 40 245 26 154 51 332 61 420 3 33 8 67 9 76 3
15 10 85 20 209 2 25 7 129 11 233 l6 187 -765 0 c-724 0 -766 -1 -763 -17z"/>
</g>
</svg>
